name C:\Users\u0101727\Documents\MyRepositories\paper-ad\predictivesimulations_2d/Results/PredSim_2D/IK_c23.mot
datacolumns 11
datarows 43
range 0.00000000 0.40293096
endheader
time	pelvis_tilt	pelvis_tx	pelvis_ty	hip_flexion_l	hip_flexion_r	knee_angle_l	knee_angle_r	ankle_angle_l	ankle_angle_r	lumbar_extension	
          0.00000000	        -15.14969543	          0.00000000	          0.88362837	          0.97213801	         38.08255875	        -16.23219208	        -10.56600550	          5.76968873	         13.84072221	          9.65668356	
          0.00959359	        -15.11165681	          0.01477770	          0.88284178	          0.87839419	         37.59799252	        -17.72574248	         -9.96066144	          4.56929132	         13.39260322	          9.75356363	
          0.01918719	        -15.06257247	          0.02981884	          0.88200421	          0.86339147	         37.01824447	        -19.38678554	         -9.64136536	          3.26508384	         12.89239039	          9.86348591	
          0.02878078	        -15.00500020	          0.04510639	          0.88113905	          0.93436560	         36.27523831	        -21.21220671	         -9.72868859	          1.83708860	         12.33800756	          9.99042484	
          0.03837438	        -14.94715180	          0.06045447	          0.88037326	          1.09595017	         35.41211885	        -23.18342666	        -10.04291960	          0.37067950	         11.76879873	         10.12495325	
          0.04796797	        -14.90000065	          0.07552237	          0.87993634	          1.37499539	         34.55408103	        -25.20801215	        -10.32309246	         -0.91265836	         11.21870273	         10.24382724	
          0.05756157	        -14.87210705	          0.09006302	          0.88009007	          1.79976463	         33.73838237	        -27.14575672	        -10.58136461	         -1.91492924	         10.68758719	         10.33313233	
          0.06715516	        -14.86581190	          0.10401344	          0.88099027	          2.36616781	         32.96747959	        -28.93403017	        -10.81261360	         -2.66548672	         10.19010829	         10.39172799	
          0.07674875	        -14.87642562	          0.11745690	          0.88259613	          3.05742592	         32.22284294	        -30.59355466	        -11.00484360	         -3.17376323	          9.74254910	         10.42575692	
          0.08634235	        -14.89735582	          0.13051762	          0.88469783	          3.85299578	         31.48335495	        -32.15343947	        -11.14913103	         -3.45250756	          9.35639792	         10.44224360	
          0.09593594	        -14.92323782	          0.14330307	          0.88706277	          4.73731723	         30.73220794	        -33.63126377	        -11.23865656	         -3.51728778	          9.03793166	         10.44650058	
          0.10552954	        -14.95063370	          0.15588750	          0.88950823	          5.69836168	         29.95995787	        -35.03548893	        -11.27150477	         -3.38312901	          8.78876101	         10.44172310	
          0.11512313	        -14.97765014	          0.16831788	          0.89191057	          6.72712376	         29.16208077	        -36.36743578	        -11.24811511	         -3.06633027	          8.60785479	         10.42966863	
          0.12471672	        -15.00332557	          0.18062425	          0.89419059	          7.81620407	         28.33702857	        -37.62400414	        -11.17048823	         -2.58363110	          8.49257371	         10.41134625	
          0.13431032	        -15.02717051	          0.19282694	          0.89629788	          8.95942431	         27.48517543	        -38.80031648	        -11.04210502	         -1.95190027	          8.43916142	         10.38737057	
          0.14390391	        -15.04891805	          0.20494100	          0.89820000	         10.15123785	         26.60817502	        -39.89028192	        -10.86781612	         -1.18808546	          8.44307187	         10.35819285	
          0.15349751	        -15.06839669	          0.21697885	          0.89987600	         11.38628583	         25.70862478	        -40.88713045	        -10.65365946	         -0.30935316	          8.49915878	         10.32422068	
          0.16309110	        -15.08548179	          0.22895141	          0.90131322	         12.65914540	         24.78982949	        -41.78368123	        -10.40665879	          0.66690723	          8.60183672	         10.28587038	
          0.17268470	        -15.10008461	          0.24086815	          0.90250679	         13.96445158	         23.85576818	        -42.57233639	        -10.13483084	          1.72312991	          8.74529576	         10.24353268	
          0.18227829	        -15.11219096	          0.25273670	          0.90345997	         15.29719309	         22.91086810	        -43.24492999	         -9.84596759	          2.84164535	          8.92366726	         10.19752793	
          0.19187188	        -15.12192516	          0.26456436	          0.90418338	         16.65138749	         21.95901733	        -43.79394851	         -9.54711207	          4.00464048	          9.13045324	         10.14833309	
          0.20146548	        -15.12944989	          0.27635738	          0.90469398	         18.02120874	         21.00439481	        -44.21171376	         -9.24584554	          5.19426840	          9.35796847	         10.09637616	
          0.21105907	        -15.13490669	          0.28812126	          0.90501257	         19.40118939	         20.05157684	        -44.49039167	         -8.95000638	          6.39271152	          9.59817484	         10.04199671	
          0.22065267	        -15.13844115	          0.29986200	          0.90516056	         20.78480867	         19.10536764	        -44.62307284	         -8.66799761	          7.58217296	          9.84313272	          9.98557662	
          0.23024626	        -15.14027327	          0.31158665	          0.90515826	         22.16518082	         18.16900431	        -44.60409411	         -8.40541782	          8.74498214	         10.08551891	          9.92764550	
          0.23983985	        -15.14072036	          0.32330356	          0.90502377	         23.53538509	         17.24328570	        -44.42943421	         -8.16356364	          9.86376696	         10.31869245	          9.86895021	
          0.24943345	        -15.14006479	          0.33502146	          0.90477263	         24.88757245	         16.32963238	        -44.09702999	         -7.94523163	         10.92179091	         10.53586732	          9.81022009	
          0.25902704	        -15.13855155	          0.34674855	          0.90441797	         26.21377051	         15.43019999	        -43.60594283	         -7.75402895	         11.90360848	         10.73097034	          9.75207554	
          0.26862064	        -15.13642275	          0.35849392	          0.90397044	         27.50513750	         14.54655312	        -42.95925558	         -7.59299493	         12.79582060	         10.89937065	          9.69525554	
          0.27821423	        -15.13393664	          0.37026601	          0.90343917	         28.75368328	         13.67962897	        -42.16148327	         -7.46415882	         13.58819650	         11.03811671	          9.64044855	
          0.28780783	        -15.13135731	          0.38207144	          0.90283221	         29.95319584	         12.83029065	        -41.21699217	         -7.36861378	         14.27465163	         11.14607277	          9.58814271	
          0.29740142	        -15.12892370	          0.39391648	          0.90215609	         31.09799061	         11.99924223	        -40.13245514	         -7.30800693	         14.85358675	         11.22396462	          9.53877691	
          0.30699501	        -15.12685733	          0.40580552	          0.90141613	         32.18510139	         11.18680307	        -38.91337991	         -7.28325162	         15.32782174	         11.27460814	          9.49254263	
          0.31658861	        -15.12536980	          0.41774215	          0.90061609	         33.21316997	         10.39286030	        -37.56475759	         -7.29474572	         15.70363461	         11.30246151	          9.44950528	
          0.32618220	        -15.12468012	          0.42972973	          0.89975791	         34.18160581	          9.61716397	        -36.09197884	         -7.34249968	         15.98938753	         11.31283892	          9.40964378	
          0.33577580	        -15.12507034	          0.44177280	          0.89884170	         35.08891654	          8.85910099	        -34.50255553	         -7.42594654	         16.19422494	         11.31099785	          9.37303278	
          0.34536939	        -15.12693138	          0.45387782	          0.89786633	         35.93162964	          8.11762310	        -32.80420411	         -7.54402782	         16.32726806	         11.30053646	          9.33998074	
          0.35496298	        -15.13058494	          0.46605292	          0.89683062	         36.70517174	          7.39238396	        -31.00839571	         -7.69704019	         16.39730009	         11.28227152	          9.31087318	
          0.36455658	        -15.13609921	          0.47831011	          0.89573723	         37.40285181	          6.68427949	        -29.14132624	         -7.88865292	         16.41247014	         11.25458383	          9.28629952	
          0.37415017	        -15.14350121	          0.49066764	          0.89459861	         38.01172130	          5.99534172	        -27.23719482	         -8.12511021	         16.38006693	         11.21142294	          9.26756450	
          0.38374377	        -15.15281087	          0.50314705	          0.89343647	         38.51598864	          5.32873346	        -25.32820704	         -8.41354638	         16.30648983	         11.14036515	          9.25639042	
          0.39333736	        -15.16370823	          0.51576714	          0.89227335	         38.90620814	          4.68887359	        -23.44222447	         -8.76245439	         16.19713083	         11.02512339	          9.25396566	
          0.40293096	        -15.17539734	          0.52854249	          0.89112721	         39.18223559	          4.08102462	        -21.60111983	         -9.18168844	         16.05611671	         10.84916646	          9.26069713	
